# Blender v3.1.2 OBJ File: 'conditional maze.blend'
# www.blender.org
mtllib screen holder.mtl
o Cube_Cube.001
v -0.579906 -0.007391 0.599906
v -0.599906 -0.007391 0.579906
v -0.579906 -0.019420 0.579906
v -0.579906 0.007391 0.599906
v -0.579906 0.019420 0.579906
v -0.599906 0.007391 0.579906
v -0.599906 -0.007391 -0.579906
v -0.579906 -0.007391 -0.599906
v -0.579906 -0.019420 -0.579906
v -0.599906 0.007391 -0.579906
v -0.579906 0.019420 -0.579906
v -0.579906 0.007391 -0.599906
v 0.579906 -0.019420 0.579906
v 0.599906 -0.007391 0.579906
v 0.579906 -0.007391 0.599906
v 0.579906 0.007391 0.599906
v 0.599906 0.007391 0.579906
v 0.579906 0.019420 0.579906
v 0.579906 -0.019420 -0.579906
v 0.579906 -0.007391 -0.599906
v 0.599906 -0.007391 -0.579906
v 0.579906 0.007391 -0.599906
v 0.579906 0.019420 -0.579906
v 0.599906 0.007391 -0.579906
v 0.551188 -0.007391 0.531188
v 0.571188 -0.019420 0.531188
v 0.531188 -0.019420 0.571188
v 0.531188 -0.007391 0.551188
v -0.571188 -0.019420 -0.531188
v -0.531188 -0.019420 -0.571188
v -0.531188 -0.007391 -0.551188
v -0.551188 -0.007391 -0.531188
v 0.531188 -0.019420 -0.571188
v 0.571188 -0.019420 -0.531188
v 0.551188 -0.007391 -0.531188
v 0.531188 -0.007391 -0.551188
v -0.551188 -0.007391 0.531188
v -0.531188 -0.007391 0.551188
v -0.531188 -0.019420 0.571188
v -0.571188 -0.019420 0.531188
v -0.531188 0.007391 0.551188
v -0.551188 0.007391 0.531188
v -0.571188 0.019420 0.531188
v -0.531188 0.019420 0.571188
v 0.551188 0.007391 -0.531188
v 0.571188 0.019420 -0.531188
v 0.531188 0.019420 -0.571188
v 0.531188 0.007391 -0.551188
v -0.531188 0.007391 -0.551188
v -0.531188 0.019420 -0.571188
v -0.571188 0.019420 -0.531188
v -0.551188 0.007391 -0.531188
v 0.531188 0.007391 0.551188
v 0.531188 0.019420 0.571188
v 0.571188 0.019420 0.531188
v 0.551188 0.007391 0.531188
vt 0.130984 0.735681
vt 0.139319 0.744016
vt 0.129167 0.745833
vt 0.129167 0.504167
vt 0.370833 0.504167
vt 0.370833 0.745833
vt 0.369016 0.735681
vt 0.369016 0.514319
vt 0.360681 0.505984
vt 0.139318 0.505984
vt 0.130984 0.514319
vt 0.629167 0.745833
vt 0.629167 0.504167
vt 0.870833 0.504167
vt 0.860681 0.505984
vt 0.639319 0.505984
vt 0.630984 0.514318
vt 0.630984 0.735682
vt 0.639318 0.744016
vt 0.458653 0.504536
vt 0.458653 0.745464
vt 0.492586 0.745464
vt 0.492586 0.504536
vt 0.360681 0.744016
vt 0.870833 0.745833
vt 0.860682 0.744016
vt 0.869016 0.735681
vt 0.869016 0.514319
vt 0.452430 0.004167
vt 0.547570 0.004167
vt 0.547570 0.245833
vt 0.452430 0.245833
vt 0.452430 0.254167
vt 0.547570 0.254167
vt 0.547570 0.495833
vt 0.452430 0.495833
vt 0.452430 0.504167
vt 0.547570 0.504167
vt 0.547570 0.745833
vt 0.452430 0.745833
vt 0.492586 0.254536
vt 0.458653 0.254536
vt 0.458653 0.495464
vt 0.492586 0.495464
vt 0.458653 0.754536
vt 0.458653 0.995464
vt 0.492586 0.995464
vt 0.492586 0.754536
vt 0.492586 0.004536
vt 0.458653 0.004536
vt 0.458653 0.245464
vt 0.492586 0.245464
vt 0.452430 0.000000
vt 0.452430 0.000000
vt 0.375000 0.004167
vt 0.547570 0.995833
vt 0.625000 0.995833
vt 0.547570 1.000000
vt 0.452430 0.250000
vt 0.375000 0.245833
vt 0.625000 0.245833
vt 0.547570 0.250000
vt 0.375000 0.745833
vt 0.372916 0.747916
vt 0.547570 0.754167
vt 0.547570 0.750000
vt 0.625000 0.754167
vt 0.370833 0.500000
vt 0.375000 0.504167
vt 0.625000 0.495833
vt 0.547570 0.500000
vt 0.458653 0.750000
vt 0.431036 0.750000
vt 0.431036 0.754536
vt 0.458653 0.750000
vt 0.431036 0.245464
vt 0.431036 0.250000
vt 0.458653 0.250000
vt 0.458653 0.250000
vt 0.431036 0.495464
vt 0.431036 0.500000
vt 0.458653 0.500000
vt 0.458653 0.500000
vt 0.458653 0.000000
vt 0.431036 0.000000
vt 0.431036 0.004536
vt 0.492586 0.000000
vt 0.492586 0.000000
vt 0.520203 0.004536
vt 0.520203 0.000000
vt 0.492586 0.500000
vt 0.520203 0.500000
vt 0.520203 0.495464
vt 0.492586 0.500000
vt 0.492586 0.250000
vt 0.520203 0.250000
vt 0.520203 0.245464
vt 0.492586 0.250000
vt 0.520203 0.754536
vt 0.520203 0.750000
vt 0.492586 0.750000
vt 0.547570 0.000000
vt 0.125000 0.745833
vt 0.125000 0.504167
vt 0.625000 0.004167
vt 0.370833 0.750000
vt 0.129167 0.750000
vt 0.452430 0.754167
vt 0.129167 0.500000
vt 0.625000 0.254167
vt 0.364849 0.735681
vt 0.364849 0.514318
vt 0.135151 0.514319
vt 0.135151 0.735681
vt 0.139318 0.739849
vt 0.360681 0.739849
vt 0.864849 0.735681
vt 0.864849 0.514318
vt 0.639318 0.739849
vt 0.860681 0.739849
vt 0.860681 0.510151
vt 0.639319 0.510151
vt 0.635151 0.514319
vt 0.635151 0.735681
vt 0.360682 0.510151
vt 0.139318 0.510151
vt 0.452430 0.995833
vn 0.0000 -1.0000 0.0000
vn 0.0000 1.0000 0.0000
vn -1.0000 0.0000 0.0000
vn 0.0000 0.0000 -1.0000
vn 1.0000 0.0000 0.0000
vn 0.0000 0.0000 1.0000
vn -0.4582 -0.7617 0.4582
vn -0.4582 0.7617 0.4582
vn -0.4582 -0.7617 -0.4582
vn -0.4582 0.7617 -0.4582
vn 0.4582 -0.7617 0.4582
vn 0.4582 0.7617 0.4582
vn 0.4582 -0.7617 -0.4582
vn 0.4582 0.7617 -0.4582
vn -0.7071 0.0000 0.7071
vn -0.5154 -0.8569 0.0000
vn -0.5154 0.8569 0.0000
vn -0.0000 -0.8569 0.5154
vn 0.7071 0.0000 0.7071
vn 0.0000 -0.8569 -0.5154
vn -0.0000 0.8569 -0.5154
vn 0.5154 -0.8569 0.0000
vn 0.5154 0.8569 0.0000
vn 0.7071 0.0000 -0.7071
vn -0.7071 0.0000 -0.7071
vn 0.0000 0.8569 0.5154
usemtl None
s off
f 40/1/1 39/2/1 3/3/1 9/4/1 19/5/1 13/6/1 26/7/1 34/8/1 33/9/1 30/10/1 29/11/1
f 18/12/2 23/13/2 11/14/2 50/15/2 47/16/2 46/17/2 55/18/2 54/19/2
f 35/20/3 25/21/3 56/22/3 45/23/3
f 13/6/1 3/3/1 39/2/1 27/24/1 26/7/1
f 11/14/2 5/25/2 18/12/2 54/19/2 44/26/2 43/27/2 51/28/2 50/15/2
f 2/29/3 6/30/3 10/31/3 7/32/3
f 8/33/4 12/34/4 22/35/4 20/36/4
f 21/37/5 24/38/5 17/39/5 14/40/5
f 49/41/6 31/42/6 36/43/6 48/44/6
f 28/45/4 38/46/4 41/47/4 53/48/4
f 42/49/5 37/50/5 32/51/5 52/52/5
f 1/53/7 2/54/7 3/55/7
f 4/56/8 5/57/8 6/58/8
f 7/32/9 8/59/9 9/60/9
f 10/31/10 11/61/10 12/62/10
f 13/6/11 14/63/11 15/64/11
f 16/65/12 17/66/12 18/67/12
f 19/5/13 20/68/13 21/69/13
f 22/35/14 23/70/14 24/71/14
f 25/72/9 26/73/9 27/74/9 28/75/9
f 29/76/11 30/77/11 31/78/11 32/79/11
f 33/80/7 34/81/7 35/82/7 36/83/7
f 37/50/13 38/84/13 39/85/13 40/86/13
f 41/87/14 42/88/14 43/89/14 44/90/14
f 45/91/8 46/92/8 47/93/8 48/94/8
f 49/95/12 50/96/12 51/97/12 52/98/12
f 53/48/10 54/99/10 55/100/10 56/101/10
f 1/53/15 4/102/15 6/30/15 2/29/15
f 2/103/16 7/104/16 9/4/16 3/3/16
f 5/105/17 11/61/17 10/31/17 6/30/17
f 3/3/18 13/6/18 15/106/18 1/107/18
f 14/40/19 17/39/19 16/65/19 15/108/19
f 8/109/20 20/68/20 19/5/20 9/4/20
f 11/110/21 23/70/21 22/35/21 12/34/21
f 25/111/16 35/112/16 34/8/16 26/7/16
f 32/113/22 37/114/22 40/1/22 29/11/22
f 17/39/23 24/38/23 23/13/23 18/12/23
f 35/20/15 45/23/15 48/44/15 36/43/15
f 20/36/24 22/35/24 24/38/24 21/37/24
f 37/50/24 42/49/24 41/87/24 38/84/24
f 27/24/20 39/2/20 38/115/20 28/116/20
f 7/32/25 10/31/25 12/34/25 8/33/25
f 4/56/26 16/65/26 18/67/26 5/57/26
f 31/42/19 49/41/19 52/52/19 32/51/19
f 42/117/23 52/118/23 51/28/23 43/27/23
f 44/26/21 54/19/21 53/119/21 41/120/21
f 47/16/26 50/15/26 49/121/26 48/122/26
f 45/123/17 56/124/17 55/18/17 46/17/17
f 30/10/18 33/9/18 36/125/18 31/126/18
f 28/45/25 53/48/25 56/22/25 25/21/25
f 13/6/22 19/5/22 21/37/22 14/40/22
f 15/108/6 16/65/6 4/56/6 1/127/6
